<svg xmlns="http://www.w3.org/2000/svg" xmlns:xlink="http://www.w3.org/1999/xlink" version="1.1" id="Layer_1" x="0px" y="0px" width="50px" height="50px" viewBox="2.5 -5.0 50.0 67.5" enable-background="new 0 0 50 50" xml:space="preserve">
<g id="eye">
	<path fill="#000000" d="M47.281,25.765l0.026-0.007C45.911,20.558,36.297,12.7,24.988,12.7c-11.297,0-20.901,7.857-22.298,13.058   l0.028,0.007l-0.026,0.007c1.396,5.199,11.003,13.06,22.297,13.06c11.305,0,20.921-7.86,22.32-13.06L47.281,25.765z M24.99,36.596   c-9.942,0-18.263-6.805-19.925-10.831c1.665-4.028,9.983-10.828,19.923-10.828c9.955,0,18.285,6.807,19.948,10.831   C43.271,29.795,34.939,36.596,24.99,36.596z"/>
	<path fill="#000000" d="M24.999,18.775c-4.011,0-7.273,3.264-7.273,7.273c0,4.011,3.263,7.274,7.273,7.274s7.274-3.264,7.274-7.274   C32.273,22.039,29.01,18.775,24.999,18.775z M24.999,31.084c-2.778,0-5.035-2.257-5.035-5.035c0-2.777,2.257-5.035,5.035-5.035   s5.036,2.258,5.036,5.035C30.035,28.827,27.777,31.084,24.999,31.084z"/>
	<circle fill="#000000" cx="24.044" cy="24.999" r="2.169"/>
	<path fill="#000000" d="M24.988,7.795c10.469,0,19.136,6.056,20.176,9.222l2.127-0.696C45.882,12.034,36.267,5.557,24.988,5.557   c-11.268,0-20.869,6.477-22.281,10.765l2.127,0.696C5.878,13.851,14.537,7.795,24.988,7.795z"/>
</g>
<text x="0.0" y="58.75" font-size="2.5" font-weight="bold" font-family="Helvetica Neue, Helvetica, Arial-Unicode, Arial, Sans-serif" fill="#000000">Created by Lubo&#353; Volkov</text><text x="0.0" y="61.25" font-size="2.5" font-weight="bold" font-family="Helvetica Neue, Helvetica, Arial-Unicode, Arial, Sans-serif" fill="#000000">from the Noun Project</text></svg>