<svg xmlns="http://www.w3.org/2000/svg" xmlns:xlink="http://www.w3.org/1999/xlink" version="1.1" id="Layer_1" x="0px" y="0px" width="50px" height="50px" viewBox="2.5 -5.0 50.0 67.5" enable-background="new 0 0 50 50" xml:space="preserve">
<g id="headphones">
	<path fill="#000000" d="M47.022,18.644c-0.006-0.012-0.008-0.024-0.014-0.038c-1.156-3.32-3.061-6.366-5.522-8.801   c-4.39-4.42-10.244-6.854-16.484-6.854c-9.942,0-18.769,6.294-22.009,15.652c-0.005,0.015-0.011,0.026-0.016,0.04   c-0.007,0.024-0.018,0.04-0.027,0.062c-0.853,2.43-1.283,4.98-1.283,7.58v4.732v0.7v6.191c0,2.998,2.436,5.436,5.431,5.436   c2.998,0,5.436-2.438,5.436-5.436v-6.892c0-2.993-2.438-5.433-5.436-5.433c-0.96,0-1.849,0.273-2.629,0.71v-0.01   c0-1.953,0.334-3.859,0.88-5.714h3.795c0.271,0,0.511-0.098,0.722-0.228c0.047-0.028,0.087-0.056,0.13-0.089   c0.202-0.155,0.36-0.355,0.451-0.599c0.005-0.013,0.019-0.016,0.023-0.029c1.894-5.561,7.903-9.443,14.614-9.443   c4.093,0,7.944,1.391,10.845,3.913c1.772,1.542,3.073,3.45,3.763,5.521c0.006,0.017,0.026,0.032,0.03,0.049   c0.036,0.096,0.09,0.176,0.147,0.256c0.048,0.07,0.081,0.147,0.14,0.206c0.06,0.066,0.137,0.11,0.21,0.161   c0.075,0.056,0.142,0.112,0.223,0.149c0.07,0.034,0.154,0.046,0.236,0.064c0.098,0.027,0.188,0.058,0.291,0.06   c0.02,0,0.037,0.011,0.055,0.011h3.627c0.546,1.855,0.881,3.761,0.881,5.714v0.021c-0.778-0.438-1.672-0.709-2.631-0.709   c-2.999,0-5.436,2.439-5.436,5.435v6.866c0,2.998,2.437,5.436,5.436,5.436c2.995,0,5.433-2.441,5.433-5.436v-6.182v-0.69v-4.742   c0-2.595-0.428-5.143-1.283-7.57C47.044,18.692,47.03,18.667,47.022,18.644z M7.099,28.385c1.457,0,2.636,1.183,2.636,2.632v6.892   c0,1.452-1.182,2.634-2.636,2.634c-1.449,0-2.628-1.182-2.628-2.634v-6.191v-0.7C4.468,29.567,5.65,28.385,7.099,28.385z    M37.768,11.978c-3.408-2.967-7.915-4.6-12.682-4.6c-7.5,0-14.235,4.236-16.843,10.393H6.397   C9.693,10.525,16.904,5.752,25.003,5.752c5.488,0,10.639,2.139,14.508,6.037c1.721,1.699,3.122,3.746,4.142,5.981H41.96   C41.054,15.598,39.639,13.606,37.768,11.978z M45.534,37.897c0,1.455-1.186,2.634-2.635,2.634c-1.452,0-2.634-1.182-2.634-2.634   v-6.869c0-1.452,1.182-2.633,2.634-2.633c1.449,0,2.635,1.183,2.635,2.633v0.688V37.897z"/>
</g>
<text x="0.0" y="58.75" font-size="2.5" font-weight="bold" font-family="Helvetica Neue, Helvetica, Arial-Unicode, Arial, Sans-serif" fill="#000000">Created by Lubo&#353; Volkov</text><text x="0.0" y="61.25" font-size="2.5" font-weight="bold" font-family="Helvetica Neue, Helvetica, Arial-Unicode, Arial, Sans-serif" fill="#000000">from the Noun Project</text></svg>