<svg xmlns="http://www.w3.org/2000/svg" xmlns:xlink="http://www.w3.org/1999/xlink" version="1.1" id="Layer_1" x="0px" y="0px" width="50px" height="50px" viewBox="2.5 -5.0 50.0 67.5" enable-background="new 0 0 50 50" xml:space="preserve">
<path fill="#000000" d="M42.314,1.005H30.531c-0.593,0-1.072,0.479-1.072,1.071v44.203c-1.431,0.122-2.863,0.138-4.285,0.041V22.153  c0-0.205-0.071-0.382-0.169-0.544l0.013-0.007L17.068,8.653c-0.194-0.319-0.539-0.511-0.912-0.511c-0.375,0-0.718,0.192-0.915,0.511  L7.278,21.602l0.004,0.002c-0.098,0.161-0.171,0.342-0.171,0.549V40.45c0,0.34,0.164,0.646,0.418,0.846  c1.348,1.17,2.812,2.216,4.34,3.102c3.655,2.155,7.851,3.529,12.136,3.977c1,0.104,2.008,0.153,3.018,0.153  c1.214,0,2.431-0.072,3.639-0.217c4.304-0.501,8.391-1.896,12.146-4.156c0.191-0.1,0.357-0.26,0.461-0.458  c0.11-0.204,0.146-0.433,0.115-0.649V2.076C43.387,1.484,42.908,1.005,42.314,1.005z M13.485,23.224h5.026v21.785  c-1.751-0.566-3.436-1.296-5.026-2.187V23.224z M10.116,21.082l3.017-4.908c0.957,0.382,1.986,0.583,3.024,0.583  c1.061,0,2.088-0.199,3.021-0.58l3.004,4.902H10.116V21.082z M16.157,11.258l1.856,3.028c-1.166,0.376-2.484,0.378-3.71-0.013  L16.157,11.258z M9.256,23.224h2.088v18.293c-0.718-0.491-1.419-1.008-2.088-1.566V23.224z M23.032,46.093  c-0.799-0.121-1.592-0.283-2.379-0.471V23.224h2.379V46.093z M41.244,42.592c-3.016,1.736-6.25,2.887-9.643,3.427V24.793h4.821  v-2.143h-4.821v-2.104h2.995v-2.143h-2.995v-2.092h2.947v-2.143h-2.947v-2.076h4.821V9.951h-4.821V8.076h2.881V5.933h-2.881V3.15  h9.643V42.592z"/>
<text x="0.0" y="58.75" font-size="2.5" font-weight="bold" font-family="Helvetica Neue, Helvetica, Arial-Unicode, Arial, Sans-serif" fill="#000000">Created by Lubo&#353; Volkov</text><text x="0.0" y="61.25" font-size="2.5" font-weight="bold" font-family="Helvetica Neue, Helvetica, Arial-Unicode, Arial, Sans-serif" fill="#000000">from the Noun Project</text></svg>